HIERARCHY
ROOT root
{
  OFFSET -63.9245 92.6846 28.11
  CHANNELS 6 Xposition Yposition Zposition Zrotation Xrotation Yrotation
  JOINT lowerback
  {
    OFFSET 0 0 0
    CHANNELS 6 Xposition Yposition Zposition Zrotation Xrotation Yrotation
    JOINT upperback
    {
      OFFSET -0.0146535 10.7314 1.20016
      CHANNELS 6 Xposition Yposition Zposition Zrotation Xrotation Yrotation
      JOINT thorax
      {
        OFFSET -0.0615349 10.8421 0.200216
        CHANNELS 6 Xposition Yposition Zposition Zrotation Xrotation Yrotation
        JOINT lowerneck
        {
          OFFSET -0.0803938 10.955 -0.362586
          CHANNELS 6 Xposition Yposition Zposition Zrotation Xrotation Yrotation
          JOINT upperneck
          {
            OFFSET 0.744525 13.1821 -0.716092
            CHANNELS 6 Xposition Yposition Zposition Zrotation Xrotation Yrotation
            JOINT head
            {
              OFFSET -0.714609 12.8109 -2.75709
              CHANNELS 6 Xposition Yposition Zposition Zrotation Xrotation Yrotation
              End headSite
              {
                OFFSET -0.301711 13.3161 -0.870562
              }
            }
          }
        }
        JOINT lclavicle
        {
          OFFSET -0.0803938 10.955 -0.362586
          CHANNELS 6 Xposition Yposition Zposition Zrotation Xrotation Yrotation
          JOINT lhumerus
          {
            OFFSET 21.0494 8.71366 -1.80014
            CHANNELS 6 Xposition Yposition Zposition Zrotation Xrotation Yrotation
            JOINT lradius
            {
              OFFSET 0 -27.9395 0
              CHANNELS 6 Xposition Yposition Zposition Zrotation Xrotation Yrotation
              JOINT lwrist
              {
                OFFSET 0 -15.5821 0
                CHANNELS 6 Xposition Yposition Zposition Zrotation Xrotation Yrotation
                JOINT lhand
                {
                  OFFSET 0 -7.79103 0
                  CHANNELS 6 Xposition Yposition Zposition Zrotation Xrotation Yrotation
                  JOINT lfingers
                  {
                    OFFSET 0 -4.76355 0
                    CHANNELS 6 Xposition Yposition Zposition Zrotation Xrotation Yrotation
                    End lfingersSite
                    {
                      OFFSET 0 -3.8405 0
                    }
                  }
                }
                JOINT lthumb
                {
                  OFFSET 0 -7.79103 0
                  CHANNELS 6 Xposition Yposition Zposition Zrotation Xrotation Yrotation
                  End lthumbSite
                  {
                    OFFSET 0 -5.5142 0
                  }
                }
              }
            }
          }
        }
        JOINT rclavicle
        {
          OFFSET -0.0803938 10.955 -0.362586
          CHANNELS 6 Xposition Yposition Zposition Zrotation Xrotation Yrotation
          JOINT rhumerus
          {
            OFFSET -22.6442 7.32563 -0.641706
            CHANNELS 6 Xposition Yposition Zposition Zrotation Xrotation Yrotation
            JOINT rradius
            {
              OFFSET 0 -24.4394 0
              CHANNELS 6 Xposition Yposition Zposition Zrotation Xrotation Yrotation
              JOINT rwrist
              {
                OFFSET 0 -18.0654 0
                CHANNELS 6 Xposition Yposition Zposition Zrotation Xrotation Yrotation
                JOINT rhand
                {
                  OFFSET 0 -9.03275 0
                  CHANNELS 6 Xposition Yposition Zposition Zrotation Xrotation Yrotation
                  JOINT rfingers
                  {
                    OFFSET 0 -5.42111 0
                    CHANNELS 6 Xposition Yposition Zposition Zrotation Xrotation Yrotation
                    End rfingersSite
                    {
                      OFFSET 0 -4.37064 0
                    }
                  }
                }
                JOINT rthumb
                {
                  OFFSET 0 -9.03275 0
                  CHANNELS 6 Xposition Yposition Zposition Zrotation Xrotation Yrotation
                  End rthumbSite
                  {
                    OFFSET 0 -6.27538 0
                  }
                }
              }
            }
          }
        }
      }
    }
  }
  JOINT rfemur
  {
    OFFSET -6.87808 -8.58224 4.63091
    CHANNELS 6 Xposition Yposition Zposition Zrotation Xrotation Yrotation
    JOINT rtibia
    {
      OFFSET 1.05643e-005 -39.9586 0
      CHANNELS 6 Xposition Yposition Zposition Zrotation Xrotation Yrotation
      JOINT rfoot
      {
        OFFSET 0 -32.7363 0
        CHANNELS 6 Xposition Yposition Zposition Zrotation Xrotation Yrotation
        JOINT rtoes
        {
          OFFSET 0 -11.385 -7.56517
          CHANNELS 6 Xposition Yposition Zposition Zrotation Xrotation Yrotation
          End rtoesSite
          {
            OFFSET 0 -6.46114 0
          }
        }
      }
    }
  }
  JOINT lfemur
  {
    OFFSET 6.18079 -8.58223 4.6309
    CHANNELS 6 Xposition Yposition Zposition Zrotation Xrotation Yrotation
    JOINT ltibia
    {
      OFFSET -1.0381e-005 -39.2652 0
      CHANNELS 6 Xposition Yposition Zposition Zrotation Xrotation Yrotation
      JOINT lfoot
      {
        OFFSET -0.00334357 -31.3814 0
        CHANNELS 6 Xposition Yposition Zposition Zrotation Xrotation Yrotation
        JOINT ltoes
        {
          OFFSET 0 -9.94555 -8.16007
          CHANNELS 6 Xposition Yposition Zposition Zrotation Xrotation Yrotation
          End ltoesSite
          {
            OFFSET 0 -5.95839 0
          }
        }
      }
    }
  }
}
MOTION
Frames:	6
Frame Time:	0.00833333
5.06224 93.4236 28.2846 -11.099 -3.32926 94.712 0 0 0 0.0703082 -12.7127 -3.23285 -0.0146535 10.7314 1.20016 0.140246 -4.20418 -4.11391 -0.0615349 10.8421 0.200216 -0.490062 2.67652 -1.96285 -0.0803938 10.955 -0.362586 -12.662 1.45863 -9.50928 0.744525 13.1821 -0.716092 0.91569 6.23904 43.0537 -0.714609 12.8109 -2.75709 154.173 4.59696 119.602 -0.0803938 10.955 -0.362586 1.17283e-014 0 5.74239e-014 21.0494 8.71366 -1.80014 -4.85016 8.23912 -159.315 1.08638e-009 -27.9395 6.27219e-010 -0 21.1178 0 6.05876e-010 -15.5821 3.49801e-010 1.00248e-014 -6.33921e-015 -154.615 -1.45919e-025 -7.79103 -3.4981e-010 4.96364 -35.0158 0 -1.65336e-025 -4.76355 -2.13835e-010 0 7.12502 -0 -1.45919e-025 -7.79103 -3.4981e-010 -10.2139 -8.16003 2.43645e-015 -0.0803938 10.955 -0.362586 1.17283e-014 0 5.74239e-014 -22.6442 7.32563 -0.641706 5.1495 6.79946 159.915 -9.50233e-010 -24.4394 5.48614e-010 -0 18.4534 0 -7.02403e-010 -18.0654 4.0553e-010 2.33734e-015 -5.22855e-015 138.173 1.69176e-025 -9.03275 -4.05569e-010 2.24761 -37.3888 0 1.88163e-025 -5.42111 -2.43422e-010 0 7.12502 -0 1.69176e-025 -9.03275 -4.05569e-010 17.5273 -10.4497 -3.41505e-015 -6.87808 -8.58224 4.63091 -2.61558 -17.2718 -17.576 1.05643e-005 -39.9586 0 -0 26.0125 0 8.65485e-006 -32.7363 0 145.162 -69.6426 143.411 2.3106e-006 -11.385 -7.56517 0 6.44062e-014 -0 6.18079 -8.58223 4.6309 7.29372 -20.4029 21.0177 -1.0381e-005 -39.2652 0 -0 28.1032 0 -0.00334357 -31.3814 0 -113.165 -64.0047 -111.036 -2.72415e-008 -9.94555 -8.16007 0 6.36111e-015 -0 
5.07406 93.4235 28.2728 -11.1136 -3.34108 94.7094 0 0 0 0.0746502 -12.7679 -3.23111 -0.0146535 10.7314 1.20016 0.14186 -4.19269 -4.11378 -0.0615349 10.8421 0.200216 -0.494165 2.71818 -1.96302 -0.0803938 10.955 -0.362586 -12.6513 1.38617 -9.52694 0.744525 13.1821 -0.716092 0.919533 6.23675 43.1321 -0.714609 12.8109 -2.75709 154.136 4.61122 119.671 -0.0803938 10.955 -0.362586 1.17283e-014 0 5.74239e-014 21.0494 8.71366 -1.80014 -4.88179 8.33448 -159.15 1.08638e-009 -27.9395 6.27219e-010 -0 21.1114 0 6.05876e-010 -15.5821 3.49801e-010 9.98994e-015 -6.35564e-015 -154.929 -1.45919e-025 -7.79103 -3.4981e-010 4.92623 -34.9462 0 -1.65336e-025 -4.76355 -2.13835e-010 0 7.12502 -0 -1.45919e-025 -7.79103 -3.4981e-010 -10.2488 -8.09287 2.4407e-015 -0.0803938 10.955 -0.362586 1.17283e-014 0 5.74239e-014 -22.6442 7.32563 -0.641706 5.14252 6.91828 159.905 -9.50233e-010 -24.4394 5.48614e-010 -0 18.4669 0 -7.02403e-010 -18.0654 4.0553e-010 2.33708e-015 -5.22831e-015 138.17 1.69176e-025 -9.03275 -4.05569e-010 2.2504 -37.3873 0 1.88163e-025 -5.42111 -2.43422e-010 0 7.12502 -0 1.69176e-025 -9.03275 -4.05569e-010 17.53 -10.4483 -3.41538e-015 -6.87808 -8.58224 4.63091 -2.60052 -17.2733 -17.5571 1.05643e-005 -39.9586 0 -0 26.0038 0 8.65485e-006 -32.7363 0 145.197 -69.6627 143.45 2.3106e-006 -11.385 -7.56517 0 6.44062e-014 -0 6.18079 -8.58223 4.6309 7.3149 -20.4111 21.0648 -1.0381e-005 -39.2652 0 -0 28.1111 0 -0.00334357 -31.3814 0 -113.135 -63.9697 -111.002 -2.72415e-008 -9.94555 -8.16007 0 6.36111e-015 -0 
5.08944 93.4237 28.2613 -11.1109 -3.35817 94.7084 0 0 0 0.108456 -12.7579 -3.23023 -0.0146535 10.7314 1.20016 0.124412 -4.20941 -4.11525 -0.0615349 10.8421 0.200216 -0.528289 2.69167 -1.96375 -0.0803938 10.955 -0.362586 -12.6171 1.37567 -9.54466 0.744525 13.1821 -0.716092 0.923925 6.23962 43.1337 -0.714609 12.8109 -2.75709 154.139 4.6362 119.644 -0.0803938 10.955 -0.362586 1.17283e-014 0 5.74239e-014 21.0494 8.71366 -1.80014 -4.9236 8.47495 -158.885 1.08638e-009 -27.9395 6.27219e-010 -0 21.1022 0 6.05876e-010 -15.5821 3.49801e-010 9.93778e-015 -6.37978e-015 -155.399 -1.45919e-025 -7.79103 -3.4981e-010 4.87568 -34.8381 0 -1.65336e-025 -4.76355 -2.13835e-010 0 7.12502 -0 -1.45919e-025 -7.79103 -3.4981e-010 -10.2953 -7.98846 2.4463e-015 -0.0803938 10.955 -0.362586 1.17283e-014 0 5.74239e-014 -22.6442 7.32563 -0.641706 5.13412 7.09394 159.874 -9.50233e-010 -24.4394 5.48614e-010 -0 18.4854 0 -7.02403e-010 -18.0654 4.0553e-010 2.33926e-015 -5.23026e-015 138.194 1.69176e-025 -9.03275 -4.05569e-010 2.25537 -37.394 0 1.88163e-025 -5.42111 -2.43422e-010 0 7.12502 -0 1.69176e-025 -9.03275 -4.05569e-010 17.5353 -10.4547 -3.41613e-015 -6.87808 -8.58224 4.63091 -2.58011 -17.2815 -17.5281 1.05643e-005 -39.9586 0 -0 25.9944 0 8.65485e-006 -32.7363 0 145.228 -69.6924 143.487 2.3106e-006 -11.385 -7.56517 0 6.44062e-014 -0 6.18079 -8.58223 4.6309 7.3391 -20.426 21.1149 -1.0381e-005 -39.2652 0 -0 28.1175 0 -0.00334357 -31.3814 0 -113.097 -63.9402 -110.963 -2.72415e-008 -9.94555 -8.16007 0 6.36111e-015 -0 
5.10258 93.4242 28.256 -11.1094 -3.37435 94.7035 0 0 0 0.0880448 -12.7686 -3.23881 -0.0146535 10.7314 1.20016 0.139709 -4.21247 -4.12433 -0.0615349 10.8421 0.200216 -0.50301 2.69667 -1.96796 -0.0803938 10.955 -0.362586 -12.6229 1.34951 -9.53841 0.744525 13.1821 -0.716092 0.926039 6.2343 43.1407 -0.714609 12.8109 -2.75709 154.129 4.63221 119.606 -0.0803938 10.955 -0.362586 1.17283e-014 0 5.74239e-014 21.0494 8.71366 -1.80014 -4.96547 8.61595 -158.62 1.08638e-009 -27.9395 6.27219e-010 -0 21.098 0 6.05876e-010 -15.5821 3.49801e-010 9.88502e-015 -6.40367e-015 -155.872 -1.45919e-025 -7.79103 -3.4981e-010 4.82199 -34.7231 0 -1.65336e-025 -4.76355 -2.13835e-010 0 7.12502 -0 -1.45919e-025 -7.79103 -3.4981e-010 -10.3448 -7.87753 2.45225e-015 -0.0803938 10.955 -0.362586 1.17283e-014 0 5.74239e-014 -22.6442 7.32563 -0.641706 5.12682 7.27102 159.834 -9.50233e-010 -24.4394 5.48614e-010 -0 18.5029 0 -7.02403e-010 -18.0654 4.0553e-010 2.34226e-015 -5.23295e-015 138.226 1.69176e-025 -9.03275 -4.05569e-010 2.25835 -37.4049 0 1.88163e-025 -5.42111 -2.43422e-010 0 7.12502 -0 1.69176e-025 -9.03275 -4.05569e-010 17.5388 -10.4652 -3.4167e-015 -6.87808 -8.58224 4.63091 -2.56028 -17.2905 -17.494 1.05643e-005 -39.9586 0 -0 25.9849 0 8.65485e-006 -32.7363 0 145.265 -69.7235 143.53 2.3106e-006 -11.385 -7.56517 0 6.44062e-014 -0 6.18079 -8.58223 4.6309 7.35946 -20.4413 21.1567 -1.0381e-005 -39.2652 0 -0 28.1228 0 -0.00334357 -31.3814 0 -113.065 -63.9206 -110.93 -2.72415e-008 -9.94555 -8.16007 0 6.36111e-015 -0 
5.11208 93.4251 28.2418 -11.1563 -3.3958 94.7109 0 0 0 0.109061 -12.3965 -3.27016 -0.0146535 10.7314 1.20016 0.154777 -4.57148 -4.15441 -0.0615349 10.8421 0.200216 -0.45085 2.12191 -1.98101 -0.0803938 10.955 -0.362586 -12.6637 1.69965 -9.44084 0.744525 13.1821 -0.716092 0.885493 6.38031 43.5419 -0.714609 12.8109 -2.75709 154.057 4.5659 119.913 -0.0803938 10.955 -0.362586 1.17283e-014 0 5.74239e-014 21.0494 8.71366 -1.80014 -4.99555 8.71383 -158.453 1.08638e-009 -27.9395 6.27219e-010 -0 21.1066 0 6.05876e-010 -15.5821 3.49801e-010 9.84858e-015 -6.41987e-015 -156.197 -1.45919e-025 -7.79103 -3.4981e-010 4.77519 -34.6333 0 -1.65336e-025 -4.76355 -2.13835e-010 0 7.12502 -0 -1.45919e-025 -7.79103 -3.4981e-010 -10.3883 -7.79081 2.45756e-015 -0.0803938 10.955 -0.362586 1.17283e-014 0 5.74239e-014 -22.6442 7.32563 -0.641706 5.12287 7.39419 159.795 -9.50233e-010 -24.4394 5.48614e-010 -0 18.513 0 -7.02403e-010 -18.0654 4.0553e-010 2.34447e-015 -5.23492e-015 138.251 1.69176e-025 -9.03275 -4.05569e-010 2.25518 -37.4163 0 1.88163e-025 -5.42111 -2.43422e-010 0 7.12502 -0 1.69176e-025 -9.03275 -4.05569e-010 17.5362 -10.4762 -3.41648e-015 -6.87808 -8.58224 4.63091 -2.547 -17.2944 -17.4597 1.05643e-005 -39.9586 0 -0 25.976 0 8.65485e-006 -32.7363 0 145.319 -69.7481 143.59 2.3106e-006 -11.385 -7.56517 0 6.44062e-014 -0 6.18079 -8.58223 4.6309 7.3691 -20.4505 21.1786 -1.0381e-005 -39.2652 0 -0 28.127 0 -0.00334357 -31.3814 0 -113.051 -63.9153 -110.916 -2.72415e-008 -9.94555 -8.16007 0 6.36111e-015 -0 
5.12478 93.4342 28.2213 -11.1841 -3.34643 94.685 0 0 0 0.0739852 -12.4322 -3.25795 -0.0146535 10.7314 1.20016 0.13703 -4.57388 -4.13294 -0.0615349 10.8421 0.200216 -0.449709 2.14017 -1.96988 -0.0803938 10.955 -0.362586 -12.6679 1.65601 -9.44672 0.744525 13.1821 -0.716092 0.891635 6.3681 43.5336 -0.714609 12.8109 -2.75709 154.044 4.5598 119.887 -0.0803938 10.955 -0.362586 1.17283e-014 0 5.74239e-014 21.0494 8.71366 -1.80014 -5.00932 8.76135 -158.414 1.08638e-009 -27.9395 6.27219e-010 -0 21.1334 0 6.05876e-010 -15.5821 3.49801e-010 9.83239e-015 -6.42698e-015 -156.342 -1.45919e-025 -7.79103 -3.4981e-010 4.72854 -34.5695 0 -1.65336e-025 -4.76355 -2.13835e-010 0 7.12502 -0 -1.45919e-025 -7.79103 -3.4981e-010 -10.4327 -7.72924 2.46312e-015 -0.0803938 10.955 -0.362586 1.17283e-014 0 5.74239e-014 -22.6442 7.32563 -0.641706 5.12144 7.45152 159.76 -9.50233e-010 -24.4394 5.48614e-010 -0 18.5152 0 -7.02403e-010 -18.0654 4.0553e-010 2.34523e-015 -5.2356e-015 138.259 1.69176e-025 -9.03275 -4.05569e-010 2.2435 -37.4299 0 1.88163e-025 -5.42111 -2.43422e-010 0 7.12502 -0 1.69176e-025 -9.03275 -4.05569e-010 17.5252 -10.4893 -3.41521e-015 -6.87808 -8.58224 4.63091 -2.54298 -17.2908 -17.4223 1.05643e-005 -39.9586 0 -0 25.9663 0 8.65485e-006 -32.7363 0 145.406 -69.7654 143.682 2.3106e-006 -11.385 -7.56517 0 6.44062e-014 -0 6.18079 -8.58223 4.6309 7.36276 -20.452 21.172 -1.0381e-005 -39.2652 0 -0 28.13 0 -0.00334357 -31.3814 0 -113.062 -63.9308 -110.928 -2.72415e-008 -9.94555 -8.16007 0 6.36111e-015 -0 
